<svg width="600" height="382" viewBox="-204.0 -19.6 435.7 277.6" role="img" aria-label="A door standing alone on an empty plot, and a missing room" style="display: block; overflow: visible"><polygon points="-194.0,120.0 27.7,248.0 27.7,240.0 -194.0,112.0" fill="#E3E8ED" stroke="#13202C" stroke-width="1.3" stroke-linejoin="round" ></polygon><polygon points="221.7,136.0 27.7,248.0 27.7,240.0 221.7,128.0" fill="#D2D9E0" stroke="#13202C" stroke-width="1.3" stroke-linejoin="round" ></polygon><polygon points="0.0,0.0 221.7,128.0 27.7,240.0 -194.0,112.0" fill="#F5F6F7" stroke="#13202C" stroke-width="1.3" stroke-linejoin="round" ></polygon><line x1="27.7" y1="16.0" x2="-166.3" y2="128.0" stroke="#DDE2E7" stroke-width="0.8" stroke-linecap="round" ></line><line x1="55.4" y1="32.0" x2="-138.6" y2="144.0" stroke="#DDE2E7" stroke-width="0.8" stroke-linecap="round" ></line><line x1="83.1" y1="48.0" x2="-110.9" y2="160.0" stroke="#DDE2E7" stroke-width="0.8" stroke-linecap="round" ></line><line x1="110.9" y1="64.0" x2="-83.1" y2="176.0" stroke="#DDE2E7" stroke-width="0.8" stroke-linecap="round" ></line><line x1="138.6" y1="80.0" x2="-55.4" y2="192.0" stroke="#DDE2E7" stroke-width="0.8" stroke-linecap="round" ></line><line x1="166.3" y1="96.0" x2="-27.7" y2="208.0" stroke="#DDE2E7" stroke-width="0.8" stroke-linecap="round" ></line><line x1="194.0" y1="112.0" x2="0.0" y2="224.0" stroke="#DDE2E7" stroke-width="0.8" stroke-linecap="round" ></line><line x1="-27.7" y1="16.0" x2="194.0" y2="144.0" stroke="#DDE2E7" stroke-width="0.8" stroke-linecap="round" ></line><line x1="-55.4" y1="32.0" x2="166.3" y2="160.0" stroke="#DDE2E7" stroke-width="0.8" stroke-linecap="round" ></line><line x1="-83.1" y1="48.0" x2="138.6" y2="176.0" stroke="#DDE2E7" stroke-width="0.8" stroke-linecap="round" ></line><line x1="-110.9" y1="64.0" x2="110.9" y2="192.0" stroke="#DDE2E7" stroke-width="0.8" stroke-linecap="round" ></line><line x1="-138.6" y1="80.0" x2="83.1" y2="208.0" stroke="#DDE2E7" stroke-width="0.8" stroke-linecap="round" ></line><line x1="-166.3" y1="96.0" x2="55.4" y2="224.0" stroke="#DDE2E7" stroke-width="0.8" stroke-linecap="round" ></line><polygon points="83.1,79.7 173.2,131.7 90.1,179.7 0.0,127.7" fill="none" stroke="#1E5AA8" stroke-width="1.6" stroke-linejoin="round" stroke-dasharray="7 5"></polygon><text x="85.9" y="138.0" text-anchor="middle" font-family="Inter, sans-serif" font-size="30" font-weight="700" fill="#1E5AA8">?</text><polygon points="-61.0,83.2 -55.4,86.4 -55.4,3.2 -61.0,0.0" fill="#EEF1F4" stroke="#13202C" stroke-width="1.3" stroke-linejoin="round" ></polygon><polygon points="-49.9,83.2 -55.4,86.4 -55.4,3.2 -49.9,0.0" fill="#DCE2E8" stroke="#13202C" stroke-width="1.3" stroke-linejoin="round" ></polygon><polygon points="-55.4,-3.2 -49.9,0.0 -55.4,3.2 -61.0,0.0" fill="#FFFFFF" stroke="#13202C" stroke-width="1.3" stroke-linejoin="round" ></polygon><polygon points="-97.0,104.0 -91.5,107.2 -91.5,24.0 -97.0,20.8" fill="#EEF1F4" stroke="#13202C" stroke-width="1.3" stroke-linejoin="round" ></polygon><polygon points="-85.9,104.0 -91.5,107.2 -91.5,24.0 -85.9,20.8" fill="#DCE2E8" stroke="#13202C" stroke-width="1.3" stroke-linejoin="round" ></polygon><polygon points="-91.5,17.6 -85.9,20.8 -91.5,24.0 -97.0,20.8" fill="#FFFFFF" stroke="#13202C" stroke-width="1.3" stroke-linejoin="round" ></polygon><polygon points="-97.0,20.8 -91.5,24.0 -91.5,17.6 -97.0,14.4" fill="#EEF1F4" stroke="#13202C" stroke-width="1.3" stroke-linejoin="round" ></polygon><polygon points="-49.9,0.0 -91.5,24.0 -91.5,17.6 -49.9,-6.4" fill="#DCE2E8" stroke="#13202C" stroke-width="1.3" stroke-linejoin="round" ></polygon><polygon points="-55.4,-9.6 -49.9,-6.4 -91.5,17.6 -97.0,14.4" fill="#FFFFFF" stroke="#13202C" stroke-width="1.3" stroke-linejoin="round" ></polygon><g class="ac-swing"><polygon points="-55.4,86.4 -85.9,104.0 -85.9,22.4 -55.4,4.8" fill="#B2441C" stroke="#13202C" stroke-width="1.3" stroke-linejoin="round" ></polygon><circle cx="-79.0" cy="58.4" r="2.4" fill="#FFFFFF" stroke="#13202C"></circle></g><polygon points="-22.2,180.8 0.0,193.6 0.0,174.4 -22.2,161.6" fill="#1D2C3E" stroke="#13202C" stroke-width="1.3" stroke-linejoin="round" ></polygon><polygon points="22.2,180.8 0.0,193.6 0.0,174.4 22.2,161.6" fill="#13202C" stroke="#13202C" stroke-width="1.3" stroke-linejoin="round" ></polygon><polygon points="0.0,148.8 22.2,161.6 0.0,174.4 -22.2,161.6" fill="#2C3F63" stroke="#13202C" stroke-width="1.3" stroke-linejoin="round" ></polygon><path d="M-11.1 169.6 L-84.5 127.2" pathLength="100" class="ac-draw" stroke="#B2441C" stroke-width="4" fill="none"></path><circle cx="0.0" cy="161.6" r="5" fill="#FFFFFF" stroke="#13202C" stroke-width="1.2"></circle><ellipse cx="194.0" cy="128.0" rx="15.4" ry="7.7" fill="#13202C" opacity="0.10"></ellipse><line x1="194.0" y1="128.0" x2="194.0" y2="73.6" stroke="#13202C" stroke-width="1.6"></line><circle cx="194.0" cy="73.6" r="19.2" fill="#2C3F63" stroke="#13202C" stroke-width="1.3"></circle><path d="M194.0 89.0 l6.7 -8.6" stroke="#FFFFFF" stroke-width="1.3" fill="none" opacity="0.8"></path><ellipse cx="-152.4" cy="110.4" rx="11.5" ry="5.8" fill="#13202C" opacity="0.10"></ellipse><line x1="-152.4" y1="110.4" x2="-152.4" y2="68.8" stroke="#13202C" stroke-width="1.6"></line><circle cx="-152.4" cy="68.8" r="14.4" fill="#2C3F63" stroke="#13202C" stroke-width="1.3"></circle><path d="M-152.4 80.3 l5.0 -6.5" stroke="#FFFFFF" stroke-width="1.3" fill="none" opacity="0.8"></path></svg>
