<svg width="230" height="192" viewBox="-77.5 -46.4 200.1 166.9" role="img" aria-label="A closed gate with a shield" style="display: block; overflow: visible"><polygon points="-67.5,45.5 45.0,110.5 45.0,104.0 -67.5,39.0" fill="#E3E8ED" stroke="#13202C" stroke-width="1.3" stroke-linejoin="round" ></polygon><polygon points="112.6,71.5 45.0,110.5 45.0,104.0 112.6,65.0" fill="#D2D9E0" stroke="#13202C" stroke-width="1.3" stroke-linejoin="round" ></polygon><polygon points="0.0,0.0 112.6,65.0 45.0,104.0 -67.5,39.0" fill="#F5F6F7" stroke="#13202C" stroke-width="1.3" stroke-linejoin="round" ></polygon><polygon points="-21.4,22.8 -13.5,27.3 -13.5,-27.3 -21.4,-31.9" fill="#1D2C3E" stroke="#13202C" stroke-width="1.3" stroke-linejoin="round" ></polygon><polygon points="-5.6,22.8 -13.5,27.3 -13.5,-27.3 -5.6,-31.9" fill="#13202C" stroke="#13202C" stroke-width="1.3" stroke-linejoin="round" ></polygon><polygon points="-13.5,-36.4 -5.6,-31.9 -13.5,-27.3 -21.4,-31.9" fill="#2C3F63" stroke="#13202C" stroke-width="1.3" stroke-linejoin="round" ></polygon><polygon points="65.3,72.8 73.2,77.3 73.2,22.7 65.3,18.2" fill="#1D2C3E" stroke="#13202C" stroke-width="1.3" stroke-linejoin="round" ></polygon><polygon points="81.1,72.8 73.2,77.3 73.2,22.7 81.1,18.2" fill="#13202C" stroke="#13202C" stroke-width="1.3" stroke-linejoin="round" ></polygon><polygon points="73.2,13.6 81.1,18.2 73.2,22.7 65.3,18.2" fill="#2C3F63" stroke="#13202C" stroke-width="1.3" stroke-linejoin="round" ></polygon><line x1="-1.7" y1="27.0" x2="-1.7" y2="-17.2" stroke="#13202C" stroke-width="2.2" stroke-linecap="round" ></line><line x1="11.8" y1="34.8" x2="11.8" y2="-9.4" stroke="#13202C" stroke-width="2.2" stroke-linecap="round" ></line><line x1="25.3" y1="42.6" x2="25.3" y2="-1.6" stroke="#13202C" stroke-width="2.2" stroke-linecap="round" ></line><line x1="38.8" y1="50.4" x2="38.8" y2="6.2" stroke="#13202C" stroke-width="2.2" stroke-linecap="round" ></line><line x1="52.4" y1="58.2" x2="52.4" y2="14.0" stroke="#13202C" stroke-width="2.2" stroke-linecap="round" ></line><line x1="63.6" y1="64.7" x2="63.6" y2="20.5" stroke="#13202C" stroke-width="2.2" stroke-linecap="round" ></line><line x1="-9.6" y1="-14.0" x2="69.2" y2="31.5" stroke="#13202C" stroke-width="2.2" stroke-linecap="round" ></line><line x1="-9.6" y1="13.3" x2="69.2" y2="58.8" stroke="#13202C" stroke-width="2.2" stroke-linecap="round" ></line><g class="ac-bob"><path d="M29.8 4.5 l13 5 v9 c0 9 -6 14 -13 17 c-7 -3 -13 -8 -13 -17 v-9 Z" fill="#FFFFFF" stroke="#13202C" stroke-width="1.4"></path><path d="M29.8 13.5 v8 M29.8 25.5 v0.5" stroke="#B2441C" stroke-width="2.6" stroke-linecap="round"></path></g></svg>
