<svg width="360" height="223" viewBox="-201.4 -17.8 360.0 222.8" role="img" aria-label="A 5 Marla plot with its width and depth marked" style="display: block; overflow: visible"><polygon points="-191.4,117.0 -56.3,195.0 -56.3,188.5 -191.4,110.5" fill="#E3E8ED" stroke="#13202C" stroke-width="1.3" stroke-linejoin="round" ></polygon><polygon points="135.1,84.5 -56.3,195.0 -56.3,188.5 135.1,78.0" fill="#D2D9E0" stroke="#13202C" stroke-width="1.3" stroke-linejoin="round" ></polygon><polygon points="0.0,0.0 135.1,78.0 -56.3,188.5 -191.4,110.5" fill="#F5F6F7" stroke="#13202C" stroke-width="1.3" stroke-linejoin="round" ></polygon><line x1="22.5" y1="13.0" x2="-168.9" y2="123.5" stroke="#DDE2E7" stroke-width="0.8" stroke-linecap="round" ></line><line x1="45.0" y1="26.0" x2="-146.4" y2="136.5" stroke="#DDE2E7" stroke-width="0.8" stroke-linecap="round" ></line><line x1="67.5" y1="39.0" x2="-123.8" y2="149.5" stroke="#DDE2E7" stroke-width="0.8" stroke-linecap="round" ></line><line x1="90.1" y1="52.0" x2="-101.3" y2="162.5" stroke="#DDE2E7" stroke-width="0.8" stroke-linecap="round" ></line><line x1="112.6" y1="65.0" x2="-78.8" y2="175.5" stroke="#DDE2E7" stroke-width="0.8" stroke-linecap="round" ></line><line x1="-22.5" y1="13.0" x2="112.6" y2="91.0" stroke="#DDE2E7" stroke-width="0.8" stroke-linecap="round" ></line><line x1="-45.0" y1="26.0" x2="90.1" y2="104.0" stroke="#DDE2E7" stroke-width="0.8" stroke-linecap="round" ></line><line x1="-67.5" y1="39.0" x2="67.5" y2="117.0" stroke="#DDE2E7" stroke-width="0.8" stroke-linecap="round" ></line><line x1="-90.1" y1="52.0" x2="45.0" y2="130.0" stroke="#DDE2E7" stroke-width="0.8" stroke-linecap="round" ></line><line x1="-112.6" y1="65.0" x2="22.5" y2="143.0" stroke="#DDE2E7" stroke-width="0.8" stroke-linecap="round" ></line><line x1="-135.1" y1="78.0" x2="0.0" y2="156.0" stroke="#DDE2E7" stroke-width="0.8" stroke-linecap="round" ></line><line x1="-157.6" y1="91.0" x2="-22.5" y2="169.0" stroke="#DDE2E7" stroke-width="0.8" stroke-linecap="round" ></line><line x1="-180.1" y1="104.0" x2="-45.0" y2="182.0" stroke="#DDE2E7" stroke-width="0.8" stroke-linecap="round" ></line><path d="M0.0 7.8 L121.6 78.0 L-56.3 180.7 L-177.9 110.5 Z" fill="none" stroke="#1E5AA8" stroke-width="1.6" stroke-dasharray="6 4"></path><polygon points="-5.6,7.8 0.0,11.0 0.0,1.9 -5.6,-1.3" fill="#1D2C3E" stroke="#13202C" stroke-width="1" stroke-linejoin="round" ></polygon><polygon points="5.6,7.8 0.0,11.0 0.0,1.9 5.6,-1.3" fill="#13202C" stroke="#13202C" stroke-width="1" stroke-linejoin="round" ></polygon><polygon points="0.0,-4.5 5.6,-1.3 0.0,1.9 -5.6,-1.3" fill="#2C3F63" stroke="#13202C" stroke-width="1" stroke-linejoin="round" ></polygon><polygon points="116.0,78.0 121.6,81.2 121.6,72.2 116.0,68.9" fill="#1D2C3E" stroke="#13202C" stroke-width="1" stroke-linejoin="round" ></polygon><polygon points="127.2,78.0 121.6,81.2 121.6,72.2 127.2,68.9" fill="#13202C" stroke="#13202C" stroke-width="1" stroke-linejoin="round" ></polygon><polygon points="121.6,65.7 127.2,68.9 121.6,72.2 116.0,68.9" fill="#2C3F63" stroke="#13202C" stroke-width="1" stroke-linejoin="round" ></polygon><polygon points="-61.9,180.7 -56.3,183.9 -56.3,174.8 -61.9,171.6" fill="#1D2C3E" stroke="#13202C" stroke-width="1" stroke-linejoin="round" ></polygon><polygon points="-50.7,180.7 -56.3,183.9 -56.3,174.8 -50.7,171.6" fill="#13202C" stroke="#13202C" stroke-width="1" stroke-linejoin="round" ></polygon><polygon points="-56.3,168.3 -50.7,171.6 -56.3,174.8 -61.9,171.6" fill="#2C3F63" stroke="#13202C" stroke-width="1" stroke-linejoin="round" ></polygon><polygon points="-183.5,110.5 -177.9,113.8 -177.9,104.7 -183.5,101.4" fill="#1D2C3E" stroke="#13202C" stroke-width="1" stroke-linejoin="round" ></polygon><polygon points="-172.3,110.5 -177.9,113.8 -177.9,104.7 -172.3,101.4" fill="#13202C" stroke="#13202C" stroke-width="1" stroke-linejoin="round" ></polygon><polygon points="-177.9,98.2 -172.3,101.4 -177.9,104.7 -183.5,101.4" fill="#2C3F63" stroke="#13202C" stroke-width="1" stroke-linejoin="round" ></polygon><line x1="22.5" y1="-5.2" x2="144.1" y2="65.0" stroke="#13202C" stroke-width="1" stroke-linecap="round" ></line><line x1="18.0" y1="-2.6" x2="27.0" y2="-7.8" stroke="#13202C" stroke-width="1" stroke-linecap="round" ></line><line x1="139.6" y1="67.6" x2="148.6" y2="62.4" stroke="#13202C" stroke-width="1" stroke-linecap="round" ></line><line x1="138.5" y1="87.8" x2="-39.4" y2="190.4" stroke="#13202C" stroke-width="1" stroke-linecap="round" ></line><line x1="134.0" y1="85.1" x2="143.0" y2="90.4" stroke="#13202C" stroke-width="1" stroke-linecap="round" ></line><line x1="-43.9" y1="187.8" x2="-34.9" y2="193.0" stroke="#13202C" stroke-width="1" stroke-linecap="round" ></line><text x="90.8" y="22.1" text-anchor="middle" font-family="IBM Plex Mono, monospace" font-size="11" font-weight="500" fill="#13202C">25'-0"</text><text x="82.7" y="150.2" text-anchor="middle" font-family="IBM Plex Mono, monospace" font-size="11" font-weight="500" fill="#13202C">45'-0"</text><ellipse cx="-131.7" cy="100.8" rx="9.4" ry="4.7" fill="#13202C" opacity="0.10"></ellipse><line x1="-131.7" y1="100.8" x2="-131.7" y2="67.0" stroke="#13202C" stroke-width="1.6"></line><circle cx="-131.7" cy="67.0" r="11.7" fill="#2C3F63" stroke="#13202C" stroke-width="1.3"></circle><path d="M-131.7 76.3 l4.1 -5.3" stroke="#FFFFFF" stroke-width="1.3" fill="none" opacity="0.8"></path><ellipse cx="-100.2" cy="82.6" rx="7.8" ry="3.9" fill="#13202C" opacity="0.10"></ellipse><line x1="-100.2" y1="82.6" x2="-100.2" y2="54.6" stroke="#13202C" stroke-width="1.6"></line><circle cx="-100.2" cy="54.6" r="9.8" fill="#2C3F63" stroke="#13202C" stroke-width="1.3"></circle><path d="M-100.2 62.4 l3.4 -4.4" stroke="#FFFFFF" stroke-width="1.3" fill="none" opacity="0.8"></path><ellipse cx="-28.1" cy="94.2" rx="10" ry="4.5" fill="#13202C" opacity="0.15"></ellipse><g class="ac-bob"><path d="M-28.1 90.2 C-32.1 78.2 -42.1 70.2 -42.1 58.2 A14 14 0 1 1 -14.1 58.2 C-14.1 70.2 -24.1 78.2 -28.1 90.2 Z" fill="#B2441C" stroke="#13202C" stroke-width="1.3"></path><circle cx="-28.1" cy="57.2" r="5.5" fill="#FFFFFF" stroke="#13202C" stroke-width="1.2"></circle></g><g class=""><rect x="-51.0" y="158.0" width="98" height="26" rx="8" fill="#FFFFFF" stroke="#C3CCD4" stroke-width="1.2"></rect><text x="-2.0" y="175.0" text-anchor="middle" font-family="Inter, sans-serif" font-size="12" font-weight="700" fill="#13202C">5 Marla</text></g></svg>
